<svg width="100" height="100" viewBox="0 0 100 100" fill="none" xmlns="http://www.w3.org/2000/svg">
<g clip-path="url(#clip0_1737_3265)">
<path d="M86.1111 22.2222H61.1111V91.6667H91.6666V27.7778C91.6666 26.3044 91.0813 24.8913 90.0395 23.8494C88.9976 22.8075 87.5845 22.2222 86.1111 22.2222ZM72.2222 69.4445H66.6666V63.8889H72.2222V69.4445ZM72.2222 55.5556H66.6666V50H72.2222V55.5556ZM72.2222 41.6667H66.6666V36.1111H72.2222V41.6667ZM83.3333 69.4445H77.7778V63.8889H83.3333V69.4445ZM83.3333 55.5556H77.7778V50H83.3333V55.5556ZM83.3333 41.6667H77.7778V36.1111H83.3333V41.6667Z" fill="#519E38"/>
<path d="M49.6666 8.33334H17C15.4381 8.33334 13.9403 8.95378 12.8359 10.0582C11.7315 11.1625 11.1111 12.6604 11.1111 14.2222V91.6667H25V83.3333H41.6666V91.6667H55.5555V14.2222C55.5555 12.6604 54.9351 11.1625 53.8307 10.0582C52.7263 8.95378 51.2285 8.33334 49.6666 8.33334ZM25 69.4445H19.4444V63.8889H25V69.4445ZM25 55.5556H19.4444V50H25V55.5556ZM25 41.6667H19.4444V36.1111H25V41.6667ZM25 27.7778H19.4444V22.2222H25V27.7778ZM36.1111 69.4445H30.5555V63.8889H36.1111V69.4445ZM36.1111 55.5556H30.5555V50H36.1111V55.5556ZM36.1111 41.6667H30.5555V36.1111H36.1111V41.6667ZM36.1111 27.7778H30.5555V22.2222H36.1111V27.7778ZM47.2222 69.4445H41.6666V63.8889H47.2222V69.4445ZM47.2222 55.5556H41.6666V50H47.2222V55.5556ZM47.2222 41.6667H41.6666V36.1111H47.2222V41.6667ZM47.2222 27.7778H41.6666V22.2222H47.2222V27.7778Z" fill="#519E38"/>
</g>
<defs>
<clipPath id="clip0_1737_3265">
<rect width="100" height="100" fill="white"/>
</clipPath>
</defs>
</svg>
