<svg width="100" height="100" viewBox="0 0 100 100" fill="none" xmlns="http://www.w3.org/2000/svg">
<path d="M66.6668 87.5L46.8252 51.125L62.5002 25L95.8335 87.5H66.6668ZM33.3335 41.6667L58.3335 87.5H8.3335L33.3335 41.6667ZM22.9168 33.3333C20.1542 33.3333 17.5046 32.2359 15.5511 30.2824C13.5976 28.3289 12.5002 25.6793 12.5002 22.9167C12.5002 20.154 13.5976 17.5045 15.5511 15.551C17.5046 13.5975 20.1542 12.5 22.9168 12.5C25.6795 12.5 28.329 13.5975 30.2825 15.551C32.236 17.5045 33.3335 20.154 33.3335 22.9167C33.3335 25.6793 32.236 28.3289 30.2825 30.2824C28.329 32.2359 25.6795 33.3333 22.9168 33.3333Z" fill="#519E38"/>
</svg>
