<svg width="100" height="100" viewBox="0 0 100 100" fill="none" xmlns="http://www.w3.org/2000/svg">
<g clip-path="url(#clip0_1737_3271)">
<path d="M64.375 51.25L58.75 56.875L64.375 62.5L56.875 70L83.75 96.875C87.5 100.625 93.125 100.625 96.875 96.875C100.625 93.125 100.625 87.5 96.875 83.75L64.375 51.25ZM88.75 93.75C86.25 93.75 83.75 91.875 83.75 88.75C83.75 86.25 85.625 83.75 88.75 83.75C91.875 83.75 93.75 85.625 93.75 88.75C93.75 91.875 91.875 93.75 88.75 93.75ZM22.5 50L28.125 46.25L37.5 35.625L43.125 41.25L48.75 35.625L48.125 35C49.375 31.875 50 28.75 50 25C50 11.25 38.75 0 25 0C21.25 0 18.125 0.625 15 1.875L33.125 20L20 33.125L1.875 15C0.625 18.125 0 21.25 0 25C0 38.125 10 48.125 22.5 50Z" fill="#519E38"/>
<path d="M50 67.5L55.625 62.5L50 56.875L85.625 21.25L93.125 18.75L100 5L95.625 0.625L81.25 6.875L78.125 14.375L43.125 50L37.5 44.375L32.5 50C32.5 50 37.5 53.75 31.875 59.375C28.75 62.5 23.75 58.75 14.375 68.125L1.25 81.25C1.25 81.25 -2.5 87.5 5 95C12.5 102.5 18.75 98.75 18.75 98.75L31.875 85.625C40.625 76.875 37.5 71.25 40 68.75C45.625 63.125 50 67.5 50 67.5ZM30.625 65L35 69.375L11.25 93.125L6.875 88.75L30.625 65Z" fill="#519E38"/>
</g>
<defs>
<clipPath id="clip0_1737_3271">
<rect width="100" height="100" fill="white"/>
</clipPath>
</defs>
</svg>
